<?xml version="1.0" standalone="no"?>
<!DOCTYPE svg PUBLIC "-//W3C//DTD SVG 20010904//EN"
 "http://www.w3.org/TR/2001/REC-SVG-20010904/DTD/svg10.dtd">
<svg version="1.0" xmlns="http://www.w3.org/2000/svg"
 width="1158.000000pt" height="128.000000pt" viewBox="0 0 1158.000000 128.000000"
 preserveAspectRatio="xMidYMid meet">

<g transform="translate(0.000000,128.000000) scale(0.100000,-0.100000)"
fill="#000000" stroke="none">
<path d="M10596 1259 c-305 -45 -514 -209 -571 -450 -17 -75 -20 -230 -4 -315
16 -92 79 -212 144 -277 151 -151 368 -216 682 -204 176 6 303 35 415 94 208
109 318 314 305 568 -9 174 -65 306 -173 404 -101 93 -227 148 -398 176 -98
16 -304 18 -400 4z m375 -363 c62 -23 113 -67 141 -123 19 -39 23 -64 22 -133
0 -145 -55 -221 -187 -262 -94 -28 -277 -23 -352 11 -97 43 -145 113 -153 222
-11 157 53 253 198 295 62 18 270 12 331 -10z"/>
<path d="M10 640 l0 -600 205 0 205 0 0 160 0 160 360 0 360 0 0 175 0 175
-357 2 -358 3 -3 88 -3 87 411 0 410 0 0 175 0 175 -615 0 -615 0 0 -600z"/>
<path d="M1440 640 l0 -600 600 0 600 0 0 175 0 175 -390 0 -390 0 0 425 0
425 -210 0 -210 0 0 -600z"/>
<path d="M3080 648 c-156 -326 -285 -596 -287 -601 -2 -4 95 -7 217 -7 l221 0
49 105 49 105 331 -2 332 -3 46 -102 47 -102 222 -1 222 0 -63 133 c-34 72
-164 342 -287 600 l-224 467 -296 0 -296 0 -283 -592z m676 100 l90 -193 -93
-3 c-51 -1 -135 -1 -187 0 l-94 3 90 193 c50 105 94 192 97 192 3 0 47 -87 97
-192z"/>
<path d="M5231 1158 c-21 -46 -149 -314 -285 -596 -135 -283 -246 -516 -246
-518 0 -2 99 -3 221 -2 l221 3 46 102 47 102 331 1 331 0 48 -105 48 -105 223
0 222 0 -287 598 -287 597 -297 3 -298 2 -38 -82z m428 -402 c50 -106 91 -196
91 -200 0 -3 -84 -6 -186 -6 -102 0 -184 4 -182 9 6 15 183 391 184 391 1 0
42 -87 93 -194z"/>
<path d="M6620 640 l0 -600 210 0 210 0 1 128 0 127 100 85 c55 47 111 93 124
102 l23 18 172 -230 172 -230 249 0 c137 0 249 2 249 6 0 4 -311 408 -502 650
l-48 61 275 238 c151 130 275 239 275 241 0 2 -136 4 -302 4 l-303 0 -237
-220 c-130 -121 -240 -220 -243 -220 -3 0 -5 99 -5 220 l0 220 -210 0 -210 0
0 -600z"/>
<path d="M8320 640 l0 -600 210 0 210 0 1 128 0 127 100 85 c55 47 111 93 124
102 l23 18 172 -230 172 -230 249 0 c137 0 249 2 249 6 0 4 -311 408 -502 650
l-48 61 275 238 c151 130 275 239 275 241 0 2 -136 4 -302 4 l-303 0 -237
-220 c-130 -121 -240 -220 -243 -220 -3 0 -5 99 -5 220 l0 220 -210 0 -210 0
0 -600z"/>
</g>
</svg>
